# xmcd
#
# Track frame offsets:
#	150
#	22663
#	51461
#	72729
#	94045
#	112164
#	130202
#	148715
#	165733
#	183032
#	198199
#	218586
#	237661
#
# Disc length: 3436 seconds
#
# Revision: 0
# Processed by: cddbd v1.5.2PL0 Copyright (c) Steve Scherf et al.
# Submitted via: dBpowerAMP V4.0
#
DISCID=bd0d6a0d
DTITLE=CARL WEATHERSBY - Restless Feeling
DYEAR=1998
DGENRE=Blues
TTITLE0=Matchbox Holds My Clothes
TTITLE1=A Real Mutha Fuh Ya
TTITLE2=It's You That I want
TTITLE3=Restless Feeling
TTITLE4=Woman Song
TTITLE5=Wheel Of Fortune
TTITLE6=We All Wanna Boogie
TTITLE7=Meadville Mississippi
TTITLE8=Everything I Do
TTITLE9=Rhymes
TTITLE10=Tired Of Being Alone
TTITLE11=Glory be
TTITLE12=She's Gone
EXTD=
EXTT0=
EXTT1=
EXTT2=
EXTT3=
EXTT4=
EXTT5=
EXTT6=
EXTT7=
EXTT8=
EXTT9=
EXTT10=
EXTT11=
EXTT12=
PLAYORDER=
